<?xml version="1.0" encoding="UTF-8" standalone="no"?><!DOCTYPE svg PUBLIC "-//W3C//DTD SVG 1.1//EN" "http://www.w3.org/Graphics/SVG/1.1/DTD/svg11.dtd"><svg width="76px" height="35px" version="1.1" xmlns="http://www.w3.org/2000/svg" xmlns:xlink="http://www.w3.org/1999/xlink" xml:space="preserve" xmlns:serif="http://www.serif.com/" style="fill-rule:evenodd;clip-rule:evenodd;stroke-linecap:round;stroke-linejoin:round;stroke-miterlimit:1.5;"><rect id="opera-house" x="0" y="0.358" width="76" height="34" style="fill:none;"/><path d="M6.986,26.358C6.64,21.939 5.058,17.584 0.996,13.358C5.236,12.274 9.262,11.708 12.372,13.358" style="fill:none;stroke:#000;stroke-width:1px;"/><path d="M15.971,26.358C16.21,21.62 13.948,15.328 8.982,7.358C13.325,6.467 17.559,6.708 22.283,8.985" style="fill:none;stroke:#000;stroke-width:1px;"/><path d="M27.004,26.358C25.812,17.243 23.146,8.745 17.967,1.358C34.328,3.183 41.854,13.25 46.004,26.358" style="fill:none;stroke:#000;stroke-width:1px;"/><path d="M55.746,19.738C57.039,16.101 58.841,12.913 61.004,10.358C53.597,7.88 47.132,9.714 41.687,16.318" style="fill:none;stroke:#000;stroke-width:1px;"/><path d="M16.969,29.358L3.991,29.358L3.991,26.358L71.004,26.358L71.004,29.358L73.004,31.358L73.004,33.358L2.004,33.358L2.004,31.358L4.004,29.358" style="fill:none;stroke:#000;stroke-width:1px;"/><path d="M0.996,13.358C3.294,17.467 3.995,21.715 3.991,26.358" style="fill:none;stroke:#000;stroke-width:1px;"/><path d="M8.982,7.358C9.295,9.072 9.427,10.763 9.285,12.418" style="fill:none;stroke:#000;stroke-width:1px;"/><path d="M17.967,1.358C18.453,3.417 18.94,5.476 18.299,7.5" style="fill:none;stroke:#000;stroke-width:1px;"/><path d="M61.004,10.358C59.782,13.939 58.708,17.308 57.973,20.592" style="fill:none;stroke:#000;stroke-width:1px;"/><path d="M55.004,26.358C54.443,24.432 53.368,22.41 52.004,20.358C54.703,19.13 57.386,19.407 60.004,22.358C63.21,17.972 67.661,14.988 75.004,15.358C71.582,18.784 69.323,22.408 69.004,26.358" style="fill:none;stroke:#000;stroke-width:1px;"/><path d="M52.004,20.358C52.415,22.423 52.87,24.524 53.004,26.358" style="fill:none;stroke:#000;stroke-width:1px;"/><path d="M75.004,15.358C72.907,19.034 71.248,22.724 71.004,26.358" style="fill:none;stroke:#000;stroke-width:1px;"/></svg>