<?xml version="1.0" encoding="UTF-8" standalone="no"?><!DOCTYPE svg PUBLIC "-//W3C//DTD SVG 1.1//EN" "http://www.w3.org/Graphics/SVG/1.1/DTD/svg11.dtd"><svg width="32px" height="81px" version="1.1" xmlns="http://www.w3.org/2000/svg" xmlns:xlink="http://www.w3.org/1999/xlink" xml:space="preserve" xmlns:serif="http://www.serif.com/" style="fill-rule:evenodd;clip-rule:evenodd;stroke-linecap:round;stroke-linejoin:round;stroke-miterlimit:1.5;"><rect id="qabous-tower" x="0" y="0" width="32" height="80.04" style="fill:none;"/><path d="M16,1L1,25L31,25L16,1Z" style="fill:none;stroke:#000;stroke-width:1px;"/><rect x="2" y="25" width="28" height="54" style="fill:none;stroke:#000;stroke-width:1px;"/><path d="M2,25L4,28L4,73L2,76" style="fill:none;stroke:#000;stroke-width:1px;"/><path d="M24,75L25,75" style="fill:none;stroke:#000;stroke-width:1px;"/><path d="M6,76L7,76" style="fill:none;stroke:#000;stroke-width:1px;"/><path d="M26,77L27,77" style="fill:none;stroke:#000;stroke-width:1px;"/><path d="M30,25L28,28L28,73L30,76" style="fill:none;stroke:#000;stroke-width:1px;"/><path d="M23,28L23,73L21,76L19,76L19,28L21,25L23,28Z" style="fill:none;stroke:#000;stroke-width:1px;"/><path d="M28,28L23,28" style="fill:none;stroke:#000;stroke-width:1px;"/><path d="M28,73L23,73" style="fill:none;stroke:#000;stroke-width:1px;"/><path d="M9,28L9,73L11,76L13,76L13,28L11,25L9,28Z" style="fill:none;stroke:#000;stroke-width:1px;"/><path d="M4,28L9,28" style="fill:none;stroke:#000;stroke-width:1px;"/><path d="M4,73L9,73" style="fill:none;stroke:#000;stroke-width:1px;"/><path d="M13,28L19,28" style="fill:none;stroke:#000;stroke-width:1px;"/><path d="M15,79L15,72.414C15,71.509 15.36,70.64 16,70C16,70 16,70 16,70C16,70 16,70 16,70C16.64,70.64 17,71.509 17,72.414C17,74.711 17,79 17,79" style="fill:none;stroke:#000;stroke-width:1px;"/><g><path d="M8,18L9,18" style="fill:none;stroke:#000;stroke-width:1px;"/><path d="M6,21L7,21" style="fill:none;stroke:#000;stroke-width:1px;"/><path d="M10,21L11,21" style="fill:none;stroke:#000;stroke-width:1px;"/></g><g><path d="M18,13L19,13" style="fill:none;stroke:#000;stroke-width:1px;"/><path d="M16,10L17,10" style="fill:none;stroke:#000;stroke-width:1px;"/><path d="M20,10L21,10" style="fill:none;stroke:#000;stroke-width:1px;"/></g></svg>