<?xml version="1.0" encoding="UTF-8" standalone="no"?>
<!DOCTYPE svg PUBLIC "-//W3C//DTD SVG 1.1//EN" "http://www.w3.org/Graphics/SVG/1.1/DTD/svg11.dtd">
<svg width="100%" height="100%" viewBox="0 0 24 24" version="1.1" xmlns="http://www.w3.org/2000/svg" xmlns:xlink="http://www.w3.org/1999/xlink" xml:space="preserve" xmlns:serif="http://www.serif.com/" style="fill-rule:evenodd;clip-rule:evenodd;stroke-linejoin:round;stroke-miterlimit:2;">
    <rect id="Artboard1" x="0" y="0" width="24" height="24" style="fill:none;"/>
    <g id="Artboard11" serif:id="Artboard1">
        <g transform="matrix(0.847315,0,0,0.847315,-2.60627,-2.8534)">
            <path d="M22.542,30.828C22.463,30.852 22.384,30.875 22.304,30.898C21.311,31.178 20.291,31.355 19.261,31.427L22.304,30.898L22.542,30.828C23.544,30.523 24.508,30.103 25.414,29.575C25.282,29.575 25.414,29.575 25.811,29.244C26.273,28.966 26.715,28.656 27.134,28.318L27.2,28.318C28.042,27.615 28.797,26.816 29.45,25.936L28.722,26.73C28.365,27.123 27.98,27.488 27.571,27.823C27.12,28.198 26.643,28.54 26.142,28.847L26.076,28.847C26.603,28.548 27.103,28.205 27.571,27.823C27.977,27.484 28.362,27.119 28.722,26.73C29.582,25.744 30.316,24.655 30.905,23.488C30.153,24.936 29.144,26.237 27.928,27.325C28.732,26.509 29.463,25.623 30.112,24.679C27.597,28.053 20.187,31.295 15.82,29.707C15.556,29.575 16.217,29.641 16.217,29.575C23.304,29.992 29.517,24.607 30.112,17.533L30.113,16.534C30.113,9.311 24.17,3.368 16.947,3.368C11.912,3.368 7.301,6.255 5.102,10.784C1.53,17.881 4.427,26.659 11.52,30.236C11.314,30.115 11.115,29.983 10.924,29.839C12.221,30.586 13.628,31.121 15.093,31.427C13.855,31.187 12.654,30.787 11.52,30.236C14.828,32.221 19.922,32.023 23.429,30.567L22.542,30.828ZM13.571,25.406C13.108,25.328 12.634,25.35 12.181,25.473C11.784,25.605 11.52,25.936 11.189,26.134C10.858,26.333 10.527,26.068 10.66,25.671L10.991,25.142L11.189,24.546C11.523,23.619 11.788,22.668 11.983,21.701L14.365,9.792C13.731,10.398 13.155,11.063 12.645,11.777C12.115,12.571 11.917,14.423 12.115,14.622C12.302,14.744 12.414,14.952 12.414,15.175C12.414,15.337 12.355,15.493 12.248,15.614C11.983,15.945 10.924,15.614 10.594,15.217C9.138,13.96 10.461,12.439 11.255,11.512C11.983,10.652 14.299,8.998 14.431,8.8L15.093,7.476C15.371,6.826 15.932,6.338 16.614,6.153C16.813,6.153 17.276,5.955 17.474,6.153C17.673,6.352 17.474,6.815 17.342,7.079C17.03,7.782 16.787,8.513 16.614,9.263L15.291,14.556C14.6,17.168 13.872,19.771 13.108,22.363C12.854,23.199 12.545,24.017 12.181,24.811C13.637,24.414 15.225,24.811 16.681,24.745C17.425,24.736 18.164,24.602 18.864,24.348C19.195,24.216 20.187,23.422 20.253,24.216C20.385,25.107 19.893,25.982 19.062,26.333C18.097,26.647 17.044,26.551 16.151,26.068C15.313,25.7 14.418,25.476 13.505,25.406L13.571,25.406ZM20.593,10.209L20.608,10.209C20.992,10.21 21.374,10.315 21.709,10.52C22.366,10.841 22.951,11.291 23.429,11.843C24.355,13.1 23.363,14.556 22.503,15.548C21.547,16.618 20.343,17.436 18.996,17.93C18.732,17.996 18.004,18.129 17.938,18.327C17.857,18.698 17.857,19.081 17.938,19.452C18.004,19.981 18.202,20.775 18.864,20.974C19.046,21.034 19.237,21.065 19.429,21.065C20.409,21.065 21.216,20.259 21.216,19.279C21.216,19.159 21.203,19.04 21.18,18.922C21.173,18.766 21.151,18.611 21.113,18.459C21.05,18.334 21.006,18.2 20.981,18.062C20.981,17.665 21.444,17.732 21.643,17.864C22.304,18.129 22.503,18.261 22.437,18.856C22.21,20.396 20.883,21.553 19.327,21.569C17.489,21.635 16.693,19.811 16.487,18.297L16.482,18.261C16.482,17.864 16.482,18.062 16.482,18.261C16.424,16.666 16.741,15.079 17.408,13.629C17.871,12.306 18.665,10.784 19.989,10.321L19.922,10.321C20.141,10.247 20.368,10.21 20.593,10.209ZM21.51,14.225C21.841,13.563 22.503,12.24 21.974,11.578C21.444,10.917 20.518,12.042 20.187,12.439C19.053,13.907 18.303,15.636 18.004,17.467C19.586,16.908 20.86,15.706 21.51,14.159L21.51,14.225Z" style="fill-rule:nonzero;"/>
        </g>
    </g>
</svg>
