<svg xmlns="http://www.w3.org/2000/svg" fill-rule="evenodd" stroke-linejoin="round" stroke-miterlimit="2" clip-rule="evenodd" viewBox="0 0 1024 1024"><path fill="none" d="M0 .667h1024v1024H0z"/><path fill="url(#_Radial1)" d="M462 29.534c30.94-17.863 69.06-17.863 100 0 85.325 49.263 258.08 149.003 343.405 198.265 30.94 17.863 50 50.876 50 86.603v396.53c0 35.726-19.06 68.739-50 86.602C820.08 846.797 647.325 946.537 562 995.799c-30.94 17.861-69.06 17.861-100 0-85.325-49.262-258.08-149.002-343.405-198.265-30.94-17.863-50-50.876-50-86.602v-396.53c0-35.727 19.06-68.74 50-86.603C203.92 178.537 376.675 78.797 462 29.534zm324.693 508.133c2.449 0 4.813.898 6.644 2.526 9.272 8.242 38.054 33.826 38.054 33.826 1.321.96 2.555 2.055 3.964 2.881 2.833 1.66 5.964 2.747 9.216 3.197 3.252.45 6.561.256 9.738-.573 1.58-.412 3.128-.983 4.598-1.695 2.954-1.433 5.597-3.433 7.778-5.887 2.181-2.453 3.858-5.313 4.934-8.414 1.076-3.102 1.531-6.385 1.338-9.663-.096-1.63-.354-3.26-.766-4.84-.829-3.177-2.275-6.16-4.256-8.778-.986-1.302-2.217-2.399-3.326-3.599l-336-298.667c-1.216-.897-2.356-1.909-3.649-2.693-3.471-2.104-4.582-2.131-8.443-3.21-1.506-.137-3.011-.274-4.517-.411-1.506.137-3.03.138-4.517.411-2.986.549-5.847 1.636-8.443 3.21-1.293.784-2.433 1.796-3.649 2.693l-336 298.667c-1.109 1.2-2.34 2.297-3.326 3.599-1.981 2.618-3.427 5.601-4.256 8.778-.828 3.176-1.023 6.485-.573 9.737.451 3.252 1.537 6.384 3.198 9.216.826 1.409 1.795 2.743 2.881 3.964 2.181 2.454 4.824 4.454 7.778 5.887 2.954 1.432 6.162 2.268 9.439 2.461 3.277.193 6.561-.262 9.662-1.338 1.544-.535 2.967-1.368 4.451-2.052l3.964-2.881s28.782-25.584 38.054-33.826c1.831-1.628 4.195-2.526 6.644-2.526h166.895c1.098 0 2.105.612 2.61 1.588.505.976.424 2.151-.21 3.049 0 0 0 .001-.001.001-3.668 5.191-6.953 10.651-9.818 16.324-5.603 11.095-9.58 23.003-11.767 35.238-2.404 13.448-2.661 27.28-.764 40.808.929 6.625 2.374 13.176 4.323 19.576 1.952 6.411 4.409 12.667 7.337 18.695 3.515 7.235 7.711 14.137 12.509 20.592 4.383 5.897 9.271 11.421 14.589 16.491 5.697 5.432 11.889 10.344 18.477 14.654 6.757 4.42 13.929 8.205 21.394 11.284.001 0 .002.001.002.001 2.621 1.08 4.454 3.491 4.796 6.305.342 2.813-.862 5.592-3.147 7.269-12.827 9.406-31.316 22.965-31.316 22.965-.915.708-1.159.868-2.017 1.647-1.93 1.752-3.583 3.806-4.88 6.066-1.731 3.015-2.822 6.388-3.183 9.846-.362 3.458.007 6.983 1.076 10.291.668 2.066 1.607 4.044 2.784 5.869 1.178 1.824 2.594 3.494 4.203 4.953.858.779 1.102.939 2.017 1.648l120 88c.358.249.71.507 1.075.746.73.479 1.485.919 2.261 1.318 2.716 1.4 5.687 2.294 8.725 2.627 2.603.285 5.249.158 7.812-.375 2.992-.622 5.864-1.797 8.434-3.449 2.938-1.89 5.468-4.397 7.383-7.319 1.197-1.824 2.153-3.806 2.836-5.878.957-2.902 1.376-5.976 1.229-9.028-.146-3.052-.857-6.072-2.088-8.869-1.054-2.397-2.487-4.625-4.23-6.579-.582-.651-1.196-1.272-1.843-1.859-.322-.293-.661-.569-.991-.854l-1.035-.801s-56.996-41.798-81.512-59.776c-2.569-1.884-4.087-4.879-4.087-8.064 0-3.186 1.518-6.181 4.087-8.064 24.516-17.979 81.512-59.776 81.512-59.776.345-.267.697-.526 1.035-.802.378-.309.747-.629 1.107-.96 6.01-4.127 11.67-8.763 16.901-13.841 5.55-5.388 10.617-11.272 15.12-17.561 4.459-6.228 8.362-12.852 11.647-19.771 2.992-6.301 5.468-12.847 7.396-19.55 1.741-6.053 3.034-12.233 3.869-18.475 1.792-13.405 1.478-27.097-.947-40.402-.909-4.986-2.112-9.917-3.603-14.761-2.087-6.779-4.738-13.385-7.917-19.726-3.023-6.031-6.518-11.823-10.445-17.307 0-.001 0-.001-.001-.001-.552-.771-.626-1.786-.193-2.63.434-.843 1.302-1.373 2.25-1.373h167.69zm-274.951 0c-1.528.007-3.056.053-4.582.145-2.742.165-5.476.473-8.187.922-6.625 1.099-13.105 3.054-19.232 5.804-7.465 3.35-14.397 7.871-20.483 13.339-7.022 6.308-12.913 13.863-17.295 22.225-3.362 6.417-5.832 13.297-7.307 20.389-1.842 8.858-2.148 18.035-.922 26.999.565 4.127 1.459 8.209 2.672 12.194 1.123 3.686 2.518 7.287 4.17 10.767 4.084 8.607 9.742 16.449 16.596 23.063 3.992 3.853 8.389 7.286 13.095 10.226 3.58 2.237 7.342 4.185 11.235 5.82 5.148 2.16 10.526 3.766 16.016 4.783 4.688.87 9.456 1.308 14.224 1.323 4.941.016 9.882-.422 14.74-1.323 5.333-.988 10.56-2.531 15.574-4.599 4.859-2.005 9.515-4.499 13.879-7.429 3.75-2.518 7.284-5.357 10.553-8.474 6.892-6.571 12.594-14.38 16.73-22.959 3.48-7.218 5.844-14.965 6.978-22.897 1.294-9.038 1.031-18.304-.802-27.249-1.487-7.257-4.011-14.294-7.469-20.846-4.072-7.715-9.432-14.742-15.782-20.725-6.301-5.936-13.57-10.836-21.447-14.429-6.182-2.82-12.728-4.828-19.428-5.961-2.706-.458-5.437-.774-8.176-.947-1.439-.092-2.881-.142-4.323-.158-.342-.002-.685-.003-1.027-.003zm-202.329-67.474c-3.103 2.758-4.179 7.147-2.703 11.027 1.475 3.881 5.195 6.447 9.347 6.447h103.886c4.152 0 7.872-2.566 9.347-6.447 1.476-3.88.4-8.269-2.703-11.027-17.001-15.112-40.582-36.073-51.943-46.172-3.789-3.368-9.499-3.368-13.288 0-11.361 10.099-34.942 31.06-51.943 46.172zm288 0c-3.103 2.758-4.179 7.147-2.703 11.027 1.475 3.881 5.195 6.447 9.347 6.447h103.886c4.152 0 7.872-2.566 9.347-6.447 1.476-3.88.4-8.269-2.703-11.027-17.001-15.112-40.582-36.073-51.943-46.172-3.789-3.368-9.499-3.368-13.288 0-11.361 10.099-34.942 31.06-51.943 46.172zm-183.375-93c-2.135 1.897-3.356 4.617-3.356 7.474 0 2.856 1.221 5.576 3.356 7.474 20.51 18.231 72.781 64.694 91.318 81.171 3.789 3.368 9.499 3.368 13.288 0 18.537-16.477 70.808-62.94 91.318-81.171 2.135-1.898 3.356-4.618 3.356-7.474 0-2.857-1.221-5.577-3.356-7.474-20.51-18.231-72.781-64.694-91.318-81.172-3.789-3.368-9.499-3.368-13.288 0-18.537 16.478-70.808 62.941-91.318 81.172zM512 120.667c22.077 0 40 17.923 40 40 0 22.076-17.923 40-40 40s-40-17.924-40-40c0-22.077 17.923-40 40-40z"/><defs><radialGradient id="_Radial1" cx="0" cy="0" r="1" gradientTransform="matrix(0 993.06 -993.06 0 512 16.1367)" gradientUnits="userSpaceOnUse"><stop offset="0" stop-color="#3cb5dd"/><stop offset=".62" stop-color="#5cacce"/><stop offset=".82" stop-color="#aa97a9"/><stop offset="1" stop-color="#ff8080"/></radialGradient></defs></svg>